Coordinates
version=1
nRows=49
nColumns=12
inDegrees=yes

Units are S.I. units (second, meters, Newtons, ...)
Angles are in degrees

endheader
time	SC_y	SC_z	SC_x	AC_y	AC_z	AC_x	GH_y	GH_z	GH_yy	EL_x	PS_y
       0.0              -43.29          25.44          12.16           54.9         -18.55          1.816          139.1          44.04          -50.9          132.0          67.93
   0.04667              -43.28          25.44          12.16           54.9         -18.55          1.818          139.1          44.04         -50.86          132.0          67.94
   0.09334              -43.28          25.44          12.16          54.89         -18.55           1.82          139.1          44.04         -50.83          132.0          67.95
      0.14              -43.27          25.44          12.16          54.89         -18.55          1.821          139.1          44.05         -50.79          132.0          67.97
    0.1867              -43.27          25.44          12.16          54.89         -18.55          1.823          139.2          44.05         -50.76          132.0          67.98
    0.2334              -43.26          25.44          12.16          54.89         -18.55          1.825          139.2          44.05         -50.72          132.0           68.0
      0.28              -43.26          25.44          12.16          54.89         -18.55          1.827          139.2          44.06         -50.67          131.9          68.01
    0.3267              -43.25          25.44          12.16          54.89         -18.55           1.83          139.2          44.06         -50.63          131.9          68.03
    0.3734              -43.25          25.44          12.16          54.89         -18.55          1.832          139.2          44.07         -50.58          131.9          68.05
      0.42              -43.24          25.44          12.16          54.88         -18.55          1.835          139.2          44.07         -50.53          131.9          68.07
    0.4667              -43.23          25.44          12.16          54.88         -18.55          1.837          139.2          44.08         -50.47          131.9          68.09
    0.5134              -43.23          25.44          12.16          54.88         -18.56           1.84          139.2          44.08         -50.41          131.8          68.12
      0.56              -43.22          25.45          12.16          54.88         -18.56          1.844          139.2          44.09         -50.34          131.8          68.14
    0.6067              -43.21          25.45          12.16          54.87         -18.56          1.847          139.2           44.1         -50.27          131.8          68.17
    0.6534               -43.2          25.45          12.16          54.87         -18.56          1.851          139.2           44.1         -50.19          131.7           68.2
    0.7001              -43.19          25.45          12.16          54.87         -18.56          1.855          139.2          44.11         -50.11          131.7          68.23
    0.7467              -43.18          25.45          12.16          54.87         -18.56          1.859          139.2          44.12         -50.02          131.7          68.27
    0.7934              -43.16          25.45          12.16          54.86         -18.56          1.864          139.2          44.13         -49.92          131.6           68.3
    0.8401              -43.15          25.45          12.16          54.86         -18.56          1.869          139.2          44.14         -49.81          131.6          68.35
    0.8867              -43.13          25.45          12.16          54.85         -18.56          1.875          139.2          44.15         -49.69          131.6          68.39
    0.9334              -43.12          25.45          12.16          54.85         -18.56          1.882          139.2          44.16         -49.56          131.5          68.44
    0.9801               -43.1          25.45          12.16          54.84         -18.56          1.889          139.2          44.18         -49.42          131.4           68.5
     1.027              -43.08          25.45          12.16          54.84         -18.56          1.896          139.3          44.19         -49.26          131.4          68.56
     1.073              -43.06          25.45          12.16          54.83         -18.56          1.905          139.3          44.21         -49.09          131.3          68.62
      1.12              -43.03          25.45          12.16          54.83         -18.56          1.914          139.3          44.23         -48.89          131.2           68.7
     1.167               -43.0          25.45          12.16          54.82         -18.57          1.925          139.3          44.25         -48.68          131.2          68.78
     1.213              -42.97          25.45          12.16          54.81         -18.57          1.937          139.3          44.27         -48.43          131.1          68.88
      1.26              -42.94          25.45          12.17           54.8         -18.57           1.95          139.3           44.3         -48.16          131.0          68.98
     1.307               -42.9          25.45          12.17          54.79         -18.57          1.965          139.4          44.33         -47.85          130.8           69.1
     1.353              -42.85          25.45          12.17          54.78         -18.57          1.982          139.4          44.36          -47.5          130.7          69.23
       1.4               -42.8          25.45          12.17          54.76         -18.57          2.002          139.4           44.4          -47.1          130.5          69.39
     1.447              -42.74          25.46          12.17          54.75         -18.58          2.024          139.4          44.44         -46.64          130.4          69.56
     1.493              -42.68          25.46          12.17          54.73         -18.58           2.05          139.5          44.49         -46.11          130.2          69.77
      1.54               -42.6          25.46          12.18           54.7         -18.58           2.08          139.5          44.55         -45.49          129.9          70.01
     1.587              -42.51          25.46          12.18          54.68         -18.59          2.116          139.6          44.62         -44.77          129.6          70.28
     1.633               -42.4          25.46          12.18          54.65         -18.59          2.157          139.6           44.7         -43.92          129.3          70.61
      1.68              -42.27          25.47          12.19          54.61          -18.6          2.207          139.7          44.79         -42.91          128.9           71.0
     1.727              -42.11          25.47          12.19          54.57         -18.61          2.266          139.8          44.91          -41.7          128.4          71.47
     1.773              -41.93          25.47           12.2          54.52         -18.61          2.337          139.9          45.05         -40.23          127.9          72.03
      1.82               -41.7          25.48           12.2          54.45         -18.62          2.425          140.0          45.22         -38.44          127.2          72.72
     1.867              -41.42          25.48          12.21          54.38         -18.64          2.533          140.1          45.42         -36.23          126.3          73.57
     1.914              -41.07          25.49          12.22          54.28         -18.65          2.667          140.3          45.68         -33.48          125.2          74.63
      1.96              -40.62           25.5          12.23          54.16         -18.67          2.837          140.6          46.01         -30.01          123.9          75.96
     2.007              -40.06          25.51          12.25           54.0          -18.7          3.053          140.9          46.43         -25.59          122.2          77.66
     2.054              -39.34          25.53          12.27           53.8         -18.73          3.329          141.3          46.96         -19.95          120.0          79.83
       2.1              -38.42          25.55           12.3          53.54         -18.77          3.683          141.8          47.65          -12.7          117.2          82.62
     2.147              -37.23          25.57          12.33          53.21         -18.83          4.135          142.4          48.53         -3.441          113.6          86.18
     2.194              -35.75          25.61          12.38           52.8         -18.89          4.704          143.2          49.63            8.2          109.0          90.65
      2.24              -33.94          25.65          12.43           52.3         -18.98          5.397          144.2          50.97          22.39          103.5          96.11
